<svg width="16" height="14" viewBox="0 0 16 14" fill="none" xmlns="http://www.w3.org/2000/svg">
<g clip-path="url(#clip0_277_286)">
<path d="M15.8749 6.58011L16.0002 6.69868V6.3383C16.0002 5.54473 15.4471 4.89867 14.7679 4.89867H13.6817C12.9217 1.71318 10.3326 0 6.48112 0C4.0285 0 3.71346 0 1.39076 0C1.39076 0 2.08812 0.589577 2.08812 2.44607V4.90054H0.803819C0.554196 4.90054 0.319884 4.80344 0.125939 4.61999L0.000663757 4.50142V4.86179C0.000663757 5.65583 0.553732 6.30142 1.233 6.30142H2.08859V7.70138H0.804283C0.55466 7.70138 0.320348 7.60475 0.126403 7.42083L0.00112774 7.30226V7.66217C0.00112774 8.45574 0.554196 9.10086 1.23347 9.10086H2.08905V11.6632C2.08905 13.4674 1.39169 14 1.39169 14H6.48205C10.4547 14 12.9611 12.2747 13.6914 9.09946H15.1975C15.4471 9.09946 15.6814 9.19609 15.8754 9.37955L16.0007 9.49812V9.13821C16.0007 8.34464 15.4476 7.69904 14.7683 7.69904H13.8914C13.9062 7.47124 13.9141 7.2383 13.9141 6.99883C13.9141 6.75936 13.9058 6.52689 13.8905 6.29909H15.1975C15.4467 6.29909 15.6814 6.39572 15.8754 6.57964L15.8749 6.58011ZM4.17419 0.700677H6.30202C9.1648 0.700677 10.8231 1.97646 11.3177 4.89914L4.17419 4.90007V0.700677ZM6.32012 13.3007H4.17373V9.1004L11.313 9.09946C10.8504 11.7444 9.36106 13.2251 6.32012 13.3007ZM11.4764 7.00023C11.4764 7.23971 11.4713 7.47311 11.4606 7.69998L4.17419 7.70091V6.30096L11.4611 6.30002C11.4713 6.52596 11.4764 6.75889 11.4764 7.00023Z" fill="#999999"/>
</g>
<defs>
<clipPath id="clip0_277_286">
<rect width="16" height="14" fill="white"/>
</clipPath>
</defs>
</svg>
