<svg width="18" height="16" viewBox="0 0 18 16" fill="none" xmlns="http://www.w3.org/2000/svg">
<g clip-path="url(#clip0_277_290)">
<path d="M17.8592 7.52012L18.0001 7.65563V7.24377C18.0001 6.33683 17.3779 5.59848 16.6138 5.59848H15.3918C14.5368 1.95792 11.6241 0 7.29118 0C4.53199 0 4.17757 0 1.56453 0C1.56453 0 2.34907 0.673802 2.34907 2.79551V5.60061H0.904221C0.623395 5.60061 0.359794 5.48965 0.141606 5.27998L0.000671387 5.14448V5.55633C0.000671387 6.46381 0.622873 7.20163 1.38705 7.20163H2.34959V8.80157H0.904743C0.623917 8.80157 0.360316 8.69114 0.142128 8.48094L0.00119337 8.34544V8.75676C0.00119337 9.6637 0.623395 10.401 1.38758 10.401H2.35011V13.3293C2.35011 15.3913 1.56557 16 1.56557 16H7.29223C11.7614 16 14.5812 14.0282 15.4028 10.3994H17.0971C17.3779 10.3994 17.6415 10.5098 17.8597 10.7195L18.0007 10.855V10.4437C18.0007 9.53673 17.3785 8.79891 16.6143 8.79891H15.6277C15.6444 8.53856 15.6533 8.27235 15.6533 7.99867C15.6533 7.72498 15.6439 7.4593 15.6267 7.19896H17.0971C17.3774 7.19896 17.6415 7.30939 17.8597 7.51959L17.8592 7.52012ZM4.69589 0.800774H7.0897C10.3103 0.800774 12.1759 2.25881 12.7323 5.59901L4.69589 5.60008V0.800774ZM7.11006 15.2008H4.69537V10.4005L12.7271 10.3994C12.2067 13.4222 10.5311 15.1144 7.11006 15.2008ZM12.9108 8.00027C12.9108 8.27395 12.9051 8.5407 12.8931 8.79997L4.69589 8.80104V7.20109L12.8936 7.20003C12.9051 7.45824 12.9108 7.72445 12.9108 8.00027Z" fill="black"/>
</g>
<defs>
<clipPath id="clip0_277_290">
<rect width="18" height="16" fill="white"/>
</clipPath>
</defs>
</svg>
